<svg height="1054" width="720" xmlns="http://www.w3.org/2000/svg">
<rect height="1054" fill="#555" width="720"></rect>
<text fill="#7f7" font-family="Courier New" font-size="12" xml:space="preserve">
<tspan x="10" y="26">3 megabytes installed</tspan>
<tspan x="10" y="42"></tspan>
<tspan x="10" y="58">node_modules</tspan>
<tspan x="10" y="74">└─┬ gulp-file-include@1.1.0 </tspan>
<tspan x="10" y="90">  ├── balanced-match@0.4.2 </tspan>
<tspan x="10" y="106">  ├─┬ concat-stream@1.6.0 </tspan>
<tspan x="10" y="122">  │ ├── inherits@2.0.3 </tspan>
<tspan x="10" y="138">  │ ├─┬ readable-stream@2.2.9 </tspan>
<tspan x="10" y="154">  │ │ ├── buffer-shims@1.0.0 </tspan>
<tspan x="10" y="170">  │ │ ├── core-util-is@1.0.2 </tspan>
<tspan x="10" y="186">  │ │ ├── isarray@1.0.0 </tspan>
<tspan x="10" y="202">  │ │ ├── process-nextick-args@1.0.7 </tspan>
<tspan x="10" y="218">  │ │ ├── string_decoder@1.0.0 </tspan>
<tspan x="10" y="234">  │ │ └── util-deprecate@1.0.2 </tspan>
<tspan x="10" y="250">  │ └── typedarray@0.0.6 </tspan>
<tspan x="10" y="266">  ├── extend@3.0.0 </tspan>
<tspan x="10" y="282">  ├── flatnest@1.0.0 </tspan>
<tspan x="10" y="298">  ├─┬ gulp-util@3.0.8 </tspan>
<tspan x="10" y="314">  │ ├── array-differ@1.0.0 </tspan>
<tspan x="10" y="330">  │ ├── array-uniq@1.0.3 </tspan>
<tspan x="10" y="346">  │ ├── beeper@1.1.1 </tspan>
<tspan x="10" y="362">  │ ├─┬ chalk@1.1.3 </tspan>
<tspan x="10" y="378">  │ │ ├── ansi-styles@2.2.1 </tspan>
<tspan x="10" y="394">  │ │ ├── escape-string-regexp@1.0.5 </tspan>
<tspan x="10" y="410">  │ │ ├─┬ has-ansi@2.0.0 </tspan>
<tspan x="10" y="426">  │ │ │ └── ansi-regex@2.1.1 </tspan>
<tspan x="10" y="442">  │ │ ├── strip-ansi@3.0.1 </tspan>
<tspan x="10" y="458">  │ │ └── supports-color@2.0.0 </tspan>
<tspan x="10" y="474">  │ ├── dateformat@2.0.0 </tspan>
<tspan x="10" y="490">  │ ├─┬ fancy-log@1.3.0 </tspan>
<tspan x="10" y="506">  │ │ └── time-stamp@1.0.1 </tspan>
<tspan x="10" y="522">  │ ├─┬ gulplog@1.0.0 </tspan>
<tspan x="10" y="538">  │ │ └── glogg@1.0.0 </tspan>
<tspan x="10" y="554">  │ ├─┬ has-gulplog@0.1.0 </tspan>
<tspan x="10" y="570">  │ │ └── sparkles@1.0.0 </tspan>
<tspan x="10" y="586">  │ ├── lodash._reescape@3.0.0 </tspan>
<tspan x="10" y="602">  │ ├── lodash._reevaluate@3.0.0 </tspan>
<tspan x="10" y="618">  │ ├── lodash._reinterpolate@3.0.0 </tspan>
<tspan x="10" y="634">  │ ├─┬ lodash.template@3.6.2 </tspan>
<tspan x="10" y="650">  │ │ ├── lodash._basecopy@3.0.1 </tspan>
<tspan x="10" y="666">  │ │ ├── lodash._basetostring@3.0.1 </tspan>
<tspan x="10" y="682">  │ │ ├── lodash._basevalues@3.0.0 </tspan>
<tspan x="10" y="698">  │ │ ├── lodash._isiterateecall@3.0.9 </tspan>
<tspan x="10" y="714">  │ │ ├─┬ lodash.escape@3.2.0 </tspan>
<tspan x="10" y="730">  │ │ │ └── lodash._root@3.0.1 </tspan>
<tspan x="10" y="746">  │ │ ├─┬ lodash.keys@3.1.2 </tspan>
<tspan x="10" y="762">  │ │ │ ├── lodash._getnative@3.9.1 </tspan>
<tspan x="10" y="778">  │ │ │ ├── lodash.isarguments@3.1.0 </tspan>
<tspan x="10" y="794">  │ │ │ └── lodash.isarray@3.0.4 </tspan>
<tspan x="10" y="810">  │ │ ├── lodash.restparam@3.6.1 </tspan>
<tspan x="10" y="826">  │ │ └── lodash.templatesettings@3.1.1 </tspan>
<tspan x="10" y="842">  │ ├── minimist@1.2.0 </tspan>
<tspan x="10" y="858">  │ ├─┬ multipipe@0.1.2 </tspan>
<tspan x="10" y="874">  │ │ └─┬ duplexer2@0.0.2 </tspan>
<tspan x="10" y="890">  │ │   └─┬ readable-stream@1.1.14 </tspan>
<tspan x="10" y="906">  │ │     ├── isarray@0.0.1 </tspan>
<tspan x="10" y="922">  │ │     └── string_decoder@0.10.31 </tspan>
<tspan x="10" y="938">  │ ├── object-assign@3.0.0 </tspan>
<tspan x="10" y="954">  │ ├── replace-ext@0.0.1 </tspan>
<tspan x="10" y="970">  │ └─┬ vinyl@0.5.3 </tspan>
<tspan x="10" y="986">  │   ├── clone@1.0.2 </tspan>
<tspan x="10" y="1002">  │   └── clone-stats@0.0.1 </tspan>
<tspan x="10" y="1018">  └─┬ through2@2.0.3 </tspan>
<tspan x="10" y="1034">    └── xtend@4.0.1</tspan>
</text>
</svg>
